<svg version="1.1" id="Layer_1" xmlns="http://www.w3.org/2000/svg" x="0" y="0" viewBox="0 0 57 47" xml:space="preserve"><style>.st0{fill:#6f6f6f}</style><path class="st0" d="M15.8-15.2c0-.5 0-.9-.1-1.4.1.4.1.9.1 1.4zM52.9 0H4.2C1.9 0 0 1.9 0 4.1v38.8C0 45.2 1.9 47 4.2 47h48.6c2.3 0 4.2-1.9 4.2-4.1V4.1c.1-2.3-1.9-4.1-4.1-4.1zM18 4.2c1 0 1.8.8 1.8 1.8S19 7.8 18 7.8 16.2 7 16.2 6 17 4.2 18 4.2zm-5.5 0c1 0 1.8.8 1.8 1.8s-.8 1.8-1.8 1.8S10.7 7 10.7 6s.8-1.8 1.8-1.8zM7 4.2c1 0 1.8.8 1.8 1.8S8 7.8 7 7.8 5.2 7 5.2 6 6 4.2 7 4.2zm46.2 38.7c0 .2-.1.3-.3.3H4.2c-.2 0-.3-.1-.3-.3V12.1h49.3v30.8z"/><path class="st0" d="M21.5 37.7c.2.2.7.2.9 0l2.8-2.8c.2-.2.2-.6 0-.9l-6.5-6.4 6.5-6.4c.2-.2.2-.6 0-.9l-2.8-2.8c-.2-.2-.7-.2-.9 0l-9.7 9.6c-.2.2-.2.6 0 .9l9.7 9.7zm10.3-2.8l2.8 2.8c.2.2.7.2.9 0l9.8-9.6c.2-.2.2-.6 0-.9l-9.8-9.6c-.2-.2-.7-.2-.9 0l-2.8 2.8c-.2.2-.2.6 0 .9l6.5 6.4-6.5 6.3c-.2.3-.2.7 0 .9z"/></svg>