<svg version="1.1" id="Layer_1" xmlns="http://www.w3.org/2000/svg" x="0" y="0" viewBox="0 0 47 44" xml:space="preserve"><style>.st0{fill:#6f6f6f}</style><path class="st0" d="M15.8-15.2c0-.5 0-.9-.1-1.4.1.4.1.9.1 1.4zM47 6.5v-.7C46.6 2.6 43.8 0 40.5 0h-.8c-3.3.4-5.8 3.1-5.8 6.5s2.5 6.1 5.8 6.5h.8c3.6 0 6.5-2.9 6.5-6.5z"/><path class="st0" d="M32.4 6.5c0-2.7 1.3-5 3.3-6.5H6.5C2.9 0 0 2.9 0 6.5S2.9 13 6.5 13h29.2c-2-1.5-3.3-3.8-3.3-6.5zM15.8 16.6c0-.5 0-.9-.1-1.4.1.5.1.9.1 1.4zM47 22v-.7c-.3-3.3-3.1-5.8-6.4-5.8h-.8c-3.3.4-5.8 3.1-5.8 6.5s2.5 6.1 5.8 6.5h.8c3.5 0 6.4-2.9 6.4-6.5z"/><path class="st0" d="M32.4 22c0-2.7 1.3-5 3.3-6.5H6.5C2.9 15.5 0 18.4 0 22s2.9 6.5 6.5 6.5h29.2c-2-1.5-3.3-3.9-3.3-6.5zm8.1 9H11.4c.6.4 1.1.9 1.5 1.5h27.6c2.8 0 5 2.2 5 5s-2.2 5-5 5H12.9c-.4.6-.9 1.1-1.5 1.5h29.2c3.6 0 6.5-2.9 6.5-6.5-.1-3.6-3-6.5-6.6-6.5z"/><circle class="st0" cx="6.5" cy="37.5" r="6.5"/></svg>